<?xml version="1.0" standalone="no"?>
<!DOCTYPE svg PUBLIC "-//W3C//DTD SVG 20010904//EN"
 "http://www.w3.org/TR/2001/REC-SVG-20010904/DTD/svg10.dtd">
<svg version="1.0" xmlns="http://www.w3.org/2000/svg"
 width="260.000000pt" height="260.000000pt" viewBox="0 0 260.000000 260.000000"
 preserveAspectRatio="xMidYMid meet">
<metadata>
Created by potrace 1.14, written by Peter Selinger 2001-2017
</metadata>
<g transform="translate(0.000000,260.000000) scale(0.100000,-0.100000)"
fill="#000000" stroke="none">
<path d="M459 2273 c-4 -131 -3 -396 2 -399 4 -2 161 -4 351 -4 386 -1 443 -8
567 -66 146 -68 258 -224 286 -399 7 -47 8 -169 1 -193 -3 -9 -7 -33 -10 -53
-13 -90 -68 -190 -146 -269 -107 -107 -225 -150 -422 -154 l-108 -2 0 228 0
228 -260 0 c-143 0 -260 -3 -261 -7 -1 -11 -1 -833 0 -861 l1 -23 468 3 467 4
90 27 c211 65 364 169 513 351 90 108 178 301 197 428 4 23 9 46 12 51 9 15 5
232 -6 298 -33 202 -132 392 -285 545 -127 127 -272 213 -446 265 -72 22 -93
23 -542 27 l-468 3 -1 -28z"/>
<path d="M620 1769 c-55 -25 -105 -71 -133 -124 -28 -53 -30 -173 -3 -225 25
-48 74 -98 121 -123 57 -30 173 -30 231 0 159 85 191 306 59 421 -56 49 -94
65 -165 68 -48 2 -77 -2 -110 -17z"/>
</g>
</svg>
